<?xml version="1.0" encoding="utf-8" standalone="no"?>
<!DOCTYPE svg PUBLIC "-//W3C//DTD SVG 1.1//EN"
  "http://www.w3.org/Graphics/SVG/1.1/DTD/svg11.dtd">
<svg height="288pt" version="1.1" viewBox="0 0 432 288" width="432pt" xmlns="http://www.w3.org/2000/svg" xmlns:xlink="http://www.w3.org/1999/xlink">
 <metadata>
  <rdf:RDF xmlns:cc="http://creativecommons.org/ns#" xmlns:dc="http://purl.org/dc/elements/1.1/" xmlns:rdf="http://www.w3.org/1999/02/22-rdf-syntax-ns#">
   <cc:Work>
    <dc:type rdf:resource="http://purl.org/dc/dcmitype/StillImage"/>
    <dc:date>2021-07-28T21:41:37.367782</dc:date>
    <dc:format>image/svg+xml</dc:format>
    <dc:creator>
     <cc:Agent>
      <dc:title>Matplotlib v3.4.2, https://matplotlib.org/</dc:title>
     </cc:Agent>
    </dc:creator>
   </cc:Work>
  </rdf:RDF>
 </metadata>
 <defs>
  <style type="text/css">*{stroke-linecap:butt;stroke-linejoin:round;}</style>
 </defs>
 <g id="figure_1">
  <g id="patch_1">
   <path d="M 0 288 
L 432 288 
L 432 0 
L 0 0 
z
" style="fill:none;"/>
  </g>
  <g id="axes_1">
   <g id="patch_2">
    <path d="M 46.55 246.2 
L 354.20127 246.2 
L 354.20127 26.8 
L 46.55 26.8 
z
" style="fill:#ffffff;"/>
   </g>
   <g id="matplotlib.axis_1">
    <g id="xtick_1">
     <g id="line2d_1">
      <defs>
       <path d="M 0 0 
L 0 3.5 
" id="m6bcd578e80" style="stroke:#000000;stroke-width:0.8;"/>
      </defs>
      <g>
       <use style="stroke:#000000;stroke-width:0.8;" x="60.534149" xlink:href="#m6bcd578e80" y="246.2"/>
      </g>
     </g>
     <g id="text_1">
      <!-- 0.0 -->
      <g transform="translate(52.582586 260.798437)scale(0.1 -0.1)">
       <defs>
        <path d="M 2034 4250 
Q 1547 4250 1301 3770 
Q 1056 3291 1056 2328 
Q 1056 1369 1301 889 
Q 1547 409 2034 409 
Q 2525 409 2770 889 
Q 3016 1369 3016 2328 
Q 3016 3291 2770 3770 
Q 2525 4250 2034 4250 
z
M 2034 4750 
Q 2819 4750 3233 4129 
Q 3647 3509 3647 2328 
Q 3647 1150 3233 529 
Q 2819 -91 2034 -91 
Q 1250 -91 836 529 
Q 422 1150 422 2328 
Q 422 3509 836 4129 
Q 1250 4750 2034 4750 
z
" id="DejaVuSans-30" transform="scale(0.015625)"/>
        <path d="M 684 794 
L 1344 794 
L 1344 0 
L 684 0 
L 684 794 
z
" id="DejaVuSans-2e" transform="scale(0.015625)"/>
       </defs>
       <use xlink:href="#DejaVuSans-30"/>
       <use x="63.623047" xlink:href="#DejaVuSans-2e"/>
       <use x="95.410156" xlink:href="#DejaVuSans-30"/>
      </g>
     </g>
    </g>
    <g id="xtick_2">
     <g id="line2d_2">
      <g>
       <use style="stroke:#000000;stroke-width:0.8;" x="97.825212" xlink:href="#m6bcd578e80" y="246.2"/>
      </g>
     </g>
     <g id="text_2">
      <!-- 0.2 -->
      <g transform="translate(89.873649 260.798437)scale(0.1 -0.1)">
       <defs>
        <path d="M 1228 531 
L 3431 531 
L 3431 0 
L 469 0 
L 469 531 
Q 828 903 1448 1529 
Q 2069 2156 2228 2338 
Q 2531 2678 2651 2914 
Q 2772 3150 2772 3378 
Q 2772 3750 2511 3984 
Q 2250 4219 1831 4219 
Q 1534 4219 1204 4116 
Q 875 4013 500 3803 
L 500 4441 
Q 881 4594 1212 4672 
Q 1544 4750 1819 4750 
Q 2544 4750 2975 4387 
Q 3406 4025 3406 3419 
Q 3406 3131 3298 2873 
Q 3191 2616 2906 2266 
Q 2828 2175 2409 1742 
Q 1991 1309 1228 531 
z
" id="DejaVuSans-32" transform="scale(0.015625)"/>
       </defs>
       <use xlink:href="#DejaVuSans-30"/>
       <use x="63.623047" xlink:href="#DejaVuSans-2e"/>
       <use x="95.410156" xlink:href="#DejaVuSans-32"/>
      </g>
     </g>
    </g>
    <g id="xtick_3">
     <g id="line2d_3">
      <g>
       <use style="stroke:#000000;stroke-width:0.8;" x="135.116275" xlink:href="#m6bcd578e80" y="246.2"/>
      </g>
     </g>
     <g id="text_3">
      <!-- 0.4 -->
      <g transform="translate(127.164712 260.798437)scale(0.1 -0.1)">
       <defs>
        <path d="M 2419 4116 
L 825 1625 
L 2419 1625 
L 2419 4116 
z
M 2253 4666 
L 3047 4666 
L 3047 1625 
L 3713 1625 
L 3713 1100 
L 3047 1100 
L 3047 0 
L 2419 0 
L 2419 1100 
L 313 1100 
L 313 1709 
L 2253 4666 
z
" id="DejaVuSans-34" transform="scale(0.015625)"/>
       </defs>
       <use xlink:href="#DejaVuSans-30"/>
       <use x="63.623047" xlink:href="#DejaVuSans-2e"/>
       <use x="95.410156" xlink:href="#DejaVuSans-34"/>
      </g>
     </g>
    </g>
    <g id="xtick_4">
     <g id="line2d_4">
      <g>
       <use style="stroke:#000000;stroke-width:0.8;" x="172.407338" xlink:href="#m6bcd578e80" y="246.2"/>
      </g>
     </g>
     <g id="text_4">
      <!-- 0.6 -->
      <g transform="translate(164.455775 260.798437)scale(0.1 -0.1)">
       <defs>
        <path d="M 2113 2584 
Q 1688 2584 1439 2293 
Q 1191 2003 1191 1497 
Q 1191 994 1439 701 
Q 1688 409 2113 409 
Q 2538 409 2786 701 
Q 3034 994 3034 1497 
Q 3034 2003 2786 2293 
Q 2538 2584 2113 2584 
z
M 3366 4563 
L 3366 3988 
Q 3128 4100 2886 4159 
Q 2644 4219 2406 4219 
Q 1781 4219 1451 3797 
Q 1122 3375 1075 2522 
Q 1259 2794 1537 2939 
Q 1816 3084 2150 3084 
Q 2853 3084 3261 2657 
Q 3669 2231 3669 1497 
Q 3669 778 3244 343 
Q 2819 -91 2113 -91 
Q 1303 -91 875 529 
Q 447 1150 447 2328 
Q 447 3434 972 4092 
Q 1497 4750 2381 4750 
Q 2619 4750 2861 4703 
Q 3103 4656 3366 4563 
z
" id="DejaVuSans-36" transform="scale(0.015625)"/>
       </defs>
       <use xlink:href="#DejaVuSans-30"/>
       <use x="63.623047" xlink:href="#DejaVuSans-2e"/>
       <use x="95.410156" xlink:href="#DejaVuSans-36"/>
      </g>
     </g>
    </g>
    <g id="xtick_5">
     <g id="line2d_5">
      <g>
       <use style="stroke:#000000;stroke-width:0.8;" x="209.698401" xlink:href="#m6bcd578e80" y="246.2"/>
      </g>
     </g>
     <g id="text_5">
      <!-- 0.8 -->
      <g transform="translate(201.746838 260.798437)scale(0.1 -0.1)">
       <defs>
        <path d="M 2034 2216 
Q 1584 2216 1326 1975 
Q 1069 1734 1069 1313 
Q 1069 891 1326 650 
Q 1584 409 2034 409 
Q 2484 409 2743 651 
Q 3003 894 3003 1313 
Q 3003 1734 2745 1975 
Q 2488 2216 2034 2216 
z
M 1403 2484 
Q 997 2584 770 2862 
Q 544 3141 544 3541 
Q 544 4100 942 4425 
Q 1341 4750 2034 4750 
Q 2731 4750 3128 4425 
Q 3525 4100 3525 3541 
Q 3525 3141 3298 2862 
Q 3072 2584 2669 2484 
Q 3125 2378 3379 2068 
Q 3634 1759 3634 1313 
Q 3634 634 3220 271 
Q 2806 -91 2034 -91 
Q 1263 -91 848 271 
Q 434 634 434 1313 
Q 434 1759 690 2068 
Q 947 2378 1403 2484 
z
M 1172 3481 
Q 1172 3119 1398 2916 
Q 1625 2713 2034 2713 
Q 2441 2713 2670 2916 
Q 2900 3119 2900 3481 
Q 2900 3844 2670 4047 
Q 2441 4250 2034 4250 
Q 1625 4250 1398 4047 
Q 1172 3844 1172 3481 
z
" id="DejaVuSans-38" transform="scale(0.015625)"/>
       </defs>
       <use xlink:href="#DejaVuSans-30"/>
       <use x="63.623047" xlink:href="#DejaVuSans-2e"/>
       <use x="95.410156" xlink:href="#DejaVuSans-38"/>
      </g>
     </g>
    </g>
    <g id="xtick_6">
     <g id="line2d_6">
      <g>
       <use style="stroke:#000000;stroke-width:0.8;" x="246.989463" xlink:href="#m6bcd578e80" y="246.2"/>
      </g>
     </g>
     <g id="text_6">
      <!-- 1.0 -->
      <g transform="translate(239.037901 260.798437)scale(0.1 -0.1)">
       <defs>
        <path d="M 794 531 
L 1825 531 
L 1825 4091 
L 703 3866 
L 703 4441 
L 1819 4666 
L 2450 4666 
L 2450 531 
L 3481 531 
L 3481 0 
L 794 0 
L 794 531 
z
" id="DejaVuSans-31" transform="scale(0.015625)"/>
       </defs>
       <use xlink:href="#DejaVuSans-31"/>
       <use x="63.623047" xlink:href="#DejaVuSans-2e"/>
       <use x="95.410156" xlink:href="#DejaVuSans-30"/>
      </g>
     </g>
    </g>
    <g id="xtick_7">
     <g id="line2d_7">
      <g>
       <use style="stroke:#000000;stroke-width:0.8;" x="284.280526" xlink:href="#m6bcd578e80" y="246.2"/>
      </g>
     </g>
     <g id="text_7">
      <!-- 1.2 -->
      <g transform="translate(276.328964 260.798437)scale(0.1 -0.1)">
       <use xlink:href="#DejaVuSans-31"/>
       <use x="63.623047" xlink:href="#DejaVuSans-2e"/>
       <use x="95.410156" xlink:href="#DejaVuSans-32"/>
      </g>
     </g>
    </g>
    <g id="xtick_8">
     <g id="line2d_8">
      <g>
       <use style="stroke:#000000;stroke-width:0.8;" x="321.571589" xlink:href="#m6bcd578e80" y="246.2"/>
      </g>
     </g>
     <g id="text_8">
      <!-- 1.4 -->
      <g transform="translate(313.620027 260.798437)scale(0.1 -0.1)">
       <use xlink:href="#DejaVuSans-31"/>
       <use x="63.623047" xlink:href="#DejaVuSans-2e"/>
       <use x="95.410156" xlink:href="#DejaVuSans-34"/>
      </g>
     </g>
    </g>
    <g id="text_9">
     <!-- Posição x [m] -->
     <g transform="translate(166.706885 274.495313)scale(0.1 -0.1)">
      <defs>
       <path d="M 1259 4147 
L 1259 2394 
L 2053 2394 
Q 2494 2394 2734 2622 
Q 2975 2850 2975 3272 
Q 2975 3691 2734 3919 
Q 2494 4147 2053 4147 
L 1259 4147 
z
M 628 4666 
L 2053 4666 
Q 2838 4666 3239 4311 
Q 3641 3956 3641 3272 
Q 3641 2581 3239 2228 
Q 2838 1875 2053 1875 
L 1259 1875 
L 1259 0 
L 628 0 
L 628 4666 
z
" id="DejaVuSans-50" transform="scale(0.015625)"/>
       <path d="M 1959 3097 
Q 1497 3097 1228 2736 
Q 959 2375 959 1747 
Q 959 1119 1226 758 
Q 1494 397 1959 397 
Q 2419 397 2687 759 
Q 2956 1122 2956 1747 
Q 2956 2369 2687 2733 
Q 2419 3097 1959 3097 
z
M 1959 3584 
Q 2709 3584 3137 3096 
Q 3566 2609 3566 1747 
Q 3566 888 3137 398 
Q 2709 -91 1959 -91 
Q 1206 -91 779 398 
Q 353 888 353 1747 
Q 353 2609 779 3096 
Q 1206 3584 1959 3584 
z
" id="DejaVuSans-6f" transform="scale(0.015625)"/>
       <path d="M 2834 3397 
L 2834 2853 
Q 2591 2978 2328 3040 
Q 2066 3103 1784 3103 
Q 1356 3103 1142 2972 
Q 928 2841 928 2578 
Q 928 2378 1081 2264 
Q 1234 2150 1697 2047 
L 1894 2003 
Q 2506 1872 2764 1633 
Q 3022 1394 3022 966 
Q 3022 478 2636 193 
Q 2250 -91 1575 -91 
Q 1294 -91 989 -36 
Q 684 19 347 128 
L 347 722 
Q 666 556 975 473 
Q 1284 391 1588 391 
Q 1994 391 2212 530 
Q 2431 669 2431 922 
Q 2431 1156 2273 1281 
Q 2116 1406 1581 1522 
L 1381 1569 
Q 847 1681 609 1914 
Q 372 2147 372 2553 
Q 372 3047 722 3315 
Q 1072 3584 1716 3584 
Q 2034 3584 2315 3537 
Q 2597 3491 2834 3397 
z
" id="DejaVuSans-73" transform="scale(0.015625)"/>
       <path d="M 603 3500 
L 1178 3500 
L 1178 0 
L 603 0 
L 603 3500 
z
M 603 4863 
L 1178 4863 
L 1178 4134 
L 603 4134 
L 603 4863 
z
" id="DejaVuSans-69" transform="scale(0.015625)"/>
       <path d="M 3122 3366 
L 3122 2828 
Q 2878 2963 2633 3030 
Q 2388 3097 2138 3097 
Q 1578 3097 1268 2742 
Q 959 2388 959 1747 
Q 959 1106 1268 751 
Q 1578 397 2138 397 
Q 2388 397 2633 464 
Q 2878 531 3122 666 
L 3122 134 
Q 2881 22 2623 -34 
Q 2366 -91 2075 -91 
Q 1284 -91 818 406 
Q 353 903 353 1747 
Q 353 2603 823 3093 
Q 1294 3584 2113 3584 
Q 2378 3584 2631 3529 
Q 2884 3475 3122 3366 
z
M 2311 0 
Q 2482 -194 2566 -358 
Q 2651 -522 2651 -672 
Q 2651 -950 2463 -1092 
Q 2276 -1234 1907 -1234 
Q 1764 -1234 1628 -1215 
Q 1492 -1197 1357 -1159 
L 1357 -750 
Q 1464 -803 1579 -826 
Q 1695 -850 1842 -850 
Q 2026 -850 2120 -775 
Q 2214 -700 2214 -556 
Q 2214 -463 2146 -327 
Q 2079 -191 1939 0 
L 2311 0 
z
" id="DejaVuSans-e7" transform="scale(0.015625)"/>
       <path d="M 2194 1759 
Q 1497 1759 1228 1600 
Q 959 1441 959 1056 
Q 959 750 1161 570 
Q 1363 391 1709 391 
Q 2188 391 2477 730 
Q 2766 1069 2766 1631 
L 2766 1759 
L 2194 1759 
z
M 3341 1997 
L 3341 0 
L 2766 0 
L 2766 531 
Q 2569 213 2275 61 
Q 1981 -91 1556 -91 
Q 1019 -91 701 211 
Q 384 513 384 1019 
Q 384 1609 779 1909 
Q 1175 2209 1959 2209 
L 2766 2209 
L 2766 2266 
Q 2766 2663 2505 2880 
Q 2244 3097 1772 3097 
Q 1472 3097 1187 3025 
Q 903 2953 641 2809 
L 641 3341 
Q 956 3463 1253 3523 
Q 1550 3584 1831 3584 
Q 2591 3584 2966 3190 
Q 3341 2797 3341 1997 
z
M 1844 4281 
L 1665 4453 
Q 1597 4516 1545 4545 
Q 1494 4575 1453 4575 
Q 1334 4575 1278 4461 
Q 1222 4347 1215 4091 
L 825 4091 
Q 831 4513 990 4742 
Q 1150 4972 1434 4972 
Q 1553 4972 1653 4928 
Q 1753 4884 1869 4781 
L 2047 4609 
Q 2115 4547 2167 4517 
Q 2219 4488 2259 4488 
Q 2378 4488 2434 4602 
Q 2490 4716 2497 4972 
L 2887 4972 
Q 2881 4550 2721 4320 
Q 2562 4091 2278 4091 
Q 2159 4091 2059 4134 
Q 1959 4178 1844 4281 
z
" id="DejaVuSans-e3" transform="scale(0.015625)"/>
       <path id="DejaVuSans-20" transform="scale(0.015625)"/>
       <path d="M 3513 3500 
L 2247 1797 
L 3578 0 
L 2900 0 
L 1881 1375 
L 863 0 
L 184 0 
L 1544 1831 
L 300 3500 
L 978 3500 
L 1906 2253 
L 2834 3500 
L 3513 3500 
z
" id="DejaVuSans-78" transform="scale(0.015625)"/>
       <path d="M 550 4863 
L 1875 4863 
L 1875 4416 
L 1125 4416 
L 1125 -397 
L 1875 -397 
L 1875 -844 
L 550 -844 
L 550 4863 
z
" id="DejaVuSans-5b" transform="scale(0.015625)"/>
       <path d="M 3328 2828 
Q 3544 3216 3844 3400 
Q 4144 3584 4550 3584 
Q 5097 3584 5394 3201 
Q 5691 2819 5691 2113 
L 5691 0 
L 5113 0 
L 5113 2094 
Q 5113 2597 4934 2840 
Q 4756 3084 4391 3084 
Q 3944 3084 3684 2787 
Q 3425 2491 3425 1978 
L 3425 0 
L 2847 0 
L 2847 2094 
Q 2847 2600 2669 2842 
Q 2491 3084 2119 3084 
Q 1678 3084 1418 2786 
Q 1159 2488 1159 1978 
L 1159 0 
L 581 0 
L 581 3500 
L 1159 3500 
L 1159 2956 
Q 1356 3278 1631 3431 
Q 1906 3584 2284 3584 
Q 2666 3584 2933 3390 
Q 3200 3197 3328 2828 
z
" id="DejaVuSans-6d" transform="scale(0.015625)"/>
       <path d="M 1947 4863 
L 1947 -844 
L 622 -844 
L 622 -397 
L 1369 -397 
L 1369 4416 
L 622 4416 
L 622 4863 
L 1947 4863 
z
" id="DejaVuSans-5d" transform="scale(0.015625)"/>
      </defs>
      <use xlink:href="#DejaVuSans-50"/>
      <use x="56.677734" xlink:href="#DejaVuSans-6f"/>
      <use x="117.859375" xlink:href="#DejaVuSans-73"/>
      <use x="169.958984" xlink:href="#DejaVuSans-69"/>
      <use x="197.742188" xlink:href="#DejaVuSans-e7"/>
      <use x="252.722656" xlink:href="#DejaVuSans-e3"/>
      <use x="314.001953" xlink:href="#DejaVuSans-6f"/>
      <use x="375.183594" xlink:href="#DejaVuSans-20"/>
      <use x="406.970703" xlink:href="#DejaVuSans-78"/>
      <use x="466.150391" xlink:href="#DejaVuSans-20"/>
      <use x="497.9375" xlink:href="#DejaVuSans-5b"/>
      <use x="536.951172" xlink:href="#DejaVuSans-6d"/>
      <use x="634.363281" xlink:href="#DejaVuSans-5d"/>
     </g>
    </g>
   </g>
   <g id="matplotlib.axis_2">
    <g id="ytick_1">
     <g id="line2d_9">
      <defs>
       <path d="M 0 0 
L -3.5 0 
" id="me57abb4d7a" style="stroke:#000000;stroke-width:0.8;"/>
      </defs>
      <g>
       <use style="stroke:#000000;stroke-width:0.8;" x="46.55" xlink:href="#me57abb4d7a" y="236.227278"/>
      </g>
     </g>
     <g id="text_10">
      <!-- −2 -->
      <g transform="translate(24.807812 240.026497)scale(0.1 -0.1)">
       <defs>
        <path d="M 678 2272 
L 4684 2272 
L 4684 1741 
L 678 1741 
L 678 2272 
z
" id="DejaVuSans-2212" transform="scale(0.015625)"/>
       </defs>
       <use xlink:href="#DejaVuSans-2212"/>
       <use x="83.789062" xlink:href="#DejaVuSans-32"/>
      </g>
     </g>
    </g>
    <g id="ytick_2">
     <g id="line2d_10">
      <g>
       <use style="stroke:#000000;stroke-width:0.8;" x="46.55" xlink:href="#me57abb4d7a" y="194.011953"/>
      </g>
     </g>
     <g id="text_11">
      <!-- −1 -->
      <g transform="translate(24.807812 197.811172)scale(0.1 -0.1)">
       <use xlink:href="#DejaVuSans-2212"/>
       <use x="83.789062" xlink:href="#DejaVuSans-31"/>
      </g>
     </g>
    </g>
    <g id="ytick_3">
     <g id="line2d_11">
      <g>
       <use style="stroke:#000000;stroke-width:0.8;" x="46.55" xlink:href="#me57abb4d7a" y="151.796629"/>
      </g>
     </g>
     <g id="text_12">
      <!-- 0 -->
      <g transform="translate(33.1875 155.595847)scale(0.1 -0.1)">
       <use xlink:href="#DejaVuSans-30"/>
      </g>
     </g>
    </g>
    <g id="ytick_4">
     <g id="line2d_12">
      <g>
       <use style="stroke:#000000;stroke-width:0.8;" x="46.55" xlink:href="#me57abb4d7a" y="109.581304"/>
      </g>
     </g>
     <g id="text_13">
      <!-- 1 -->
      <g transform="translate(33.1875 113.380523)scale(0.1 -0.1)">
       <use xlink:href="#DejaVuSans-31"/>
      </g>
     </g>
    </g>
    <g id="ytick_5">
     <g id="line2d_13">
      <g>
       <use style="stroke:#000000;stroke-width:0.8;" x="46.55" xlink:href="#me57abb4d7a" y="67.365979"/>
      </g>
     </g>
     <g id="text_14">
      <!-- 2 -->
      <g transform="translate(33.1875 71.165198)scale(0.1 -0.1)">
       <use xlink:href="#DejaVuSans-32"/>
      </g>
     </g>
    </g>
    <g id="text_15">
     <!-- Amplitude -->
     <g transform="translate(18.728125 162.122656)rotate(-90)scale(0.1 -0.1)">
      <defs>
       <path d="M 2188 4044 
L 1331 1722 
L 3047 1722 
L 2188 4044 
z
M 1831 4666 
L 2547 4666 
L 4325 0 
L 3669 0 
L 3244 1197 
L 1141 1197 
L 716 0 
L 50 0 
L 1831 4666 
z
" id="DejaVuSans-41" transform="scale(0.015625)"/>
       <path d="M 1159 525 
L 1159 -1331 
L 581 -1331 
L 581 3500 
L 1159 3500 
L 1159 2969 
Q 1341 3281 1617 3432 
Q 1894 3584 2278 3584 
Q 2916 3584 3314 3078 
Q 3713 2572 3713 1747 
Q 3713 922 3314 415 
Q 2916 -91 2278 -91 
Q 1894 -91 1617 61 
Q 1341 213 1159 525 
z
M 3116 1747 
Q 3116 2381 2855 2742 
Q 2594 3103 2138 3103 
Q 1681 3103 1420 2742 
Q 1159 2381 1159 1747 
Q 1159 1113 1420 752 
Q 1681 391 2138 391 
Q 2594 391 2855 752 
Q 3116 1113 3116 1747 
z
" id="DejaVuSans-70" transform="scale(0.015625)"/>
       <path d="M 603 4863 
L 1178 4863 
L 1178 0 
L 603 0 
L 603 4863 
z
" id="DejaVuSans-6c" transform="scale(0.015625)"/>
       <path d="M 1172 4494 
L 1172 3500 
L 2356 3500 
L 2356 3053 
L 1172 3053 
L 1172 1153 
Q 1172 725 1289 603 
Q 1406 481 1766 481 
L 2356 481 
L 2356 0 
L 1766 0 
Q 1100 0 847 248 
Q 594 497 594 1153 
L 594 3053 
L 172 3053 
L 172 3500 
L 594 3500 
L 594 4494 
L 1172 4494 
z
" id="DejaVuSans-74" transform="scale(0.015625)"/>
       <path d="M 544 1381 
L 544 3500 
L 1119 3500 
L 1119 1403 
Q 1119 906 1312 657 
Q 1506 409 1894 409 
Q 2359 409 2629 706 
Q 2900 1003 2900 1516 
L 2900 3500 
L 3475 3500 
L 3475 0 
L 2900 0 
L 2900 538 
Q 2691 219 2414 64 
Q 2138 -91 1772 -91 
Q 1169 -91 856 284 
Q 544 659 544 1381 
z
M 1991 3584 
L 1991 3584 
z
" id="DejaVuSans-75" transform="scale(0.015625)"/>
       <path d="M 2906 2969 
L 2906 4863 
L 3481 4863 
L 3481 0 
L 2906 0 
L 2906 525 
Q 2725 213 2448 61 
Q 2172 -91 1784 -91 
Q 1150 -91 751 415 
Q 353 922 353 1747 
Q 353 2572 751 3078 
Q 1150 3584 1784 3584 
Q 2172 3584 2448 3432 
Q 2725 3281 2906 2969 
z
M 947 1747 
Q 947 1113 1208 752 
Q 1469 391 1925 391 
Q 2381 391 2643 752 
Q 2906 1113 2906 1747 
Q 2906 2381 2643 2742 
Q 2381 3103 1925 3103 
Q 1469 3103 1208 2742 
Q 947 2381 947 1747 
z
" id="DejaVuSans-64" transform="scale(0.015625)"/>
       <path d="M 3597 1894 
L 3597 1613 
L 953 1613 
Q 991 1019 1311 708 
Q 1631 397 2203 397 
Q 2534 397 2845 478 
Q 3156 559 3463 722 
L 3463 178 
Q 3153 47 2828 -22 
Q 2503 -91 2169 -91 
Q 1331 -91 842 396 
Q 353 884 353 1716 
Q 353 2575 817 3079 
Q 1281 3584 2069 3584 
Q 2775 3584 3186 3129 
Q 3597 2675 3597 1894 
z
M 3022 2063 
Q 3016 2534 2758 2815 
Q 2500 3097 2075 3097 
Q 1594 3097 1305 2825 
Q 1016 2553 972 2059 
L 3022 2063 
z
" id="DejaVuSans-65" transform="scale(0.015625)"/>
      </defs>
      <use xlink:href="#DejaVuSans-41"/>
      <use x="68.408203" xlink:href="#DejaVuSans-6d"/>
      <use x="165.820312" xlink:href="#DejaVuSans-70"/>
      <use x="229.296875" xlink:href="#DejaVuSans-6c"/>
      <use x="257.080078" xlink:href="#DejaVuSans-69"/>
      <use x="284.863281" xlink:href="#DejaVuSans-74"/>
      <use x="324.072266" xlink:href="#DejaVuSans-75"/>
      <use x="387.451172" xlink:href="#DejaVuSans-64"/>
      <use x="450.927734" xlink:href="#DejaVuSans-65"/>
     </g>
    </g>
   </g>
   <g id="line2d_14">
    <path clip-path="url(#pac7eaeb7f6)" d="M 60.534149 151.796629 
L 67.060085 151.687725 
L 73.772476 151.353469 
L 80.671323 150.783094 
L 87.570169 149.991054 
L 94.655471 148.955638 
L 101.927229 147.668481 
L 109.385441 146.122213 
L 117.030109 144.310548 
L 124.861232 142.228362 
L 133.065266 139.814364 
L 141.455755 137.113377 
L 150.219155 134.057437 
L 159.355465 130.63343 
L 168.864687 126.831152 
L 178.933274 122.562425 
L 189.561227 117.811351 
L 200.935001 112.478161 
L 213.054596 106.547642 
L 226.292924 99.820691 
L 241.209349 91.985047 
L 258.363238 82.714191 
L 279.432688 71.061664 
L 309.638449 54.077012 
L 340.217121 36.772727 
L 340.217121 36.772727 
" style="fill:none;stroke:#1f77b4;stroke-linecap:square;stroke-width:1.5;"/>
   </g>
   <g id="line2d_15">
    <path clip-path="url(#pac7eaeb7f6)" d="M 60.534149 151.796629 
L 63.703889 151.680467 
L 66.873629 151.340557 
L 70.229825 150.751065 
L 73.586021 149.940405 
L 77.128672 148.861619 
L 80.857778 147.497879 
L 84.959795 145.75194 
L 89.248267 143.680395 
L 93.90965 141.179371 
L 99.130399 138.118041 
L 105.096969 134.351676 
L 112.555181 129.36171 
L 128.217428 118.513945 
L 136.980828 112.626436 
L 143.693219 108.38174 
L 149.473334 104.987383 
L 154.694083 102.1759 
L 159.541921 99.814423 
L 164.016848 97.871404 
L 168.305321 96.24108 
L 172.407338 94.90839 
L 176.509354 93.80987 
L 180.424916 92.989814 
L 184.340478 92.401531 
L 188.069584 92.06343 
L 191.79869 91.947537 
L 195.527797 92.058275 
L 199.256903 92.399138 
L 202.986009 92.972687 
L 206.715115 93.780561 
L 210.444222 94.82348 
L 214.173328 96.101261 
L 217.902434 97.612835 
L 221.817996 99.449476 
L 225.733558 101.538485 
L 229.649119 103.875629 
L 233.751136 106.584545 
L 238.039608 109.694036 
L 242.328081 113.078023 
L 246.803008 116.890557 
L 251.464391 121.153697 
L 256.312229 125.88616 
L 261.532978 131.301425 
L 266.940182 137.231841 
L 272.720297 143.899862 
L 279.059778 151.55974 
L 285.958624 160.249819 
L 293.789748 170.481261 
L 303.112513 183.04681 
L 315.232109 199.783009 
L 340.217121 234.737003 
L 340.217121 234.737003 
" style="fill:none;stroke:#ff7f0e;stroke-linecap:square;stroke-width:1.5;"/>
   </g>
   <g id="line2d_16">
    <path clip-path="url(#pac7eaeb7f6)" d="M 60.534149 151.796629 
L 62.398702 151.682823 
L 64.263255 151.349485 
L 66.314263 150.743719 
L 68.365272 149.903106 
L 70.602736 148.737167 
L 73.026655 147.204538 
L 75.637029 145.270159 
L 78.433859 142.907517 
L 81.603599 139.916846 
L 85.14625 136.249497 
L 89.434722 131.461972 
L 95.214837 124.637562 
L 106.961522 110.698955 
L 111.43645 105.774505 
L 115.352011 101.793398 
L 118.708207 98.6833 
L 121.877947 96.042345 
L 124.861232 93.848973 
L 127.658062 92.071728 
L 130.268436 90.672295 
L 132.692355 89.608089 
L 135.116275 88.779166 
L 137.540194 88.192678 
L 139.777657 87.871524 
L 142.015121 87.76543 
L 144.252585 87.87693 
L 146.490049 88.207562 
L 148.727513 88.757868 
L 150.964976 89.527399 
L 153.388895 90.606764 
L 155.812815 91.938615 
L 158.236734 93.518538 
L 160.847108 95.490857 
L 163.457482 97.735512 
L 166.254312 100.430905 
L 169.237597 103.620812 
L 172.407338 107.343816 
L 175.763533 111.630749 
L 179.49264 116.767181 
L 183.594656 122.808714 
L 188.256039 130.076298 
L 194.222609 139.815738 
L 212.49523 169.94887 
L 217.156613 177.036964 
L 221.25863 182.868654 
L 224.801281 187.534622 
L 228.157477 191.591915 
L 231.140762 194.870199 
L 233.937591 197.639977 
L 236.734421 200.09675 
L 239.344796 202.092317 
L 241.768715 203.677081 
L 244.192634 204.994478 
L 246.430098 205.966568 
L 248.667561 206.699108 
L 250.905025 207.187761 
L 252.956034 207.418458 
L 255.007042 207.439245 
L 257.05805 207.24869 
L 259.109059 206.845973 
L 261.160067 206.230882 
L 263.397531 205.318142 
L 265.634995 204.154467 
L 267.872459 202.742014 
L 270.296378 200.934585 
L 272.720297 198.843521 
L 275.330671 196.281174 
L 277.941046 193.405372 
L 280.737875 189.987629 
L 283.721161 185.973529 
L 286.890901 181.312075 
L 290.247097 175.957687 
L 293.789748 169.872325 
L 297.518854 163.027657 
L 301.620871 155.034108 
L 306.282254 145.439917 
L 311.503002 134.163268 
L 317.656028 120.324793 
L 325.673606 101.71383 
L 340.217121 67.300376 
L 340.217121 67.300376 
" style="fill:none;stroke:#2ca02c;stroke-linecap:square;stroke-width:1.5;"/>
   </g>
   <g id="line2d_17">
    <path clip-path="url(#pac7eaeb7f6)" d="M 60.534149 151.796629 
L 61.839336 151.687381 
L 63.144523 151.367242 
L 64.636166 150.757768 
L 66.127808 149.904762 
L 67.805906 148.675209 
L 69.670459 147.002201 
L 71.721468 144.827039 
L 73.958931 142.104028 
L 76.569306 138.538788 
L 79.552591 134.060537 
L 83.468152 127.738367 
L 95.774203 107.524376 
L 98.943943 102.899661 
L 101.740773 99.205051 
L 104.164692 96.351282 
L 106.402156 94.0404 
L 108.453165 92.219318 
L 110.504173 90.702014 
L 112.368726 89.600044 
L 114.046824 88.843138 
L 115.724922 88.315359 
L 117.40302 88.021869 
L 119.081117 87.966629 
L 120.759215 88.15239 
L 122.437313 88.580697 
L 124.115411 89.251889 
L 125.793509 90.165109 
L 127.471607 91.318314 
L 129.33616 92.877177 
L 131.200713 94.722272 
L 133.251721 97.073168 
L 135.489185 100.007145 
L 137.726649 103.307506 
L 140.150568 107.270051 
L 142.760942 111.951099 
L 145.744228 117.768929 
L 149.100423 124.82083 
L 153.20244 134.004029 
L 158.7961 147.133714 
L 168.118865 169.024892 
L 172.220882 178.044459 
L 175.577078 184.909231 
L 178.560363 190.51991 
L 181.170737 194.987652 
L 183.594656 198.724821 
L 185.83212 201.793292 
L 187.883129 204.264104 
L 189.934137 206.391666 
L 191.79869 208.01661 
L 193.663243 209.338316 
L 195.341341 210.262919 
L 197.019439 210.932539 
L 198.697537 211.344466 
L 200.189179 211.492975 
L 201.680822 211.436228 
L 203.172464 211.174562 
L 204.850562 210.636565 
L 206.52866 209.843093 
L 208.206758 208.7978 
L 209.884856 207.505442 
L 211.749409 205.78685 
L 213.800417 203.563865 
L 215.851426 201.006963 
L 218.08889 197.856862 
L 220.512809 194.047723 
L 223.123183 189.524054 
L 226.106468 183.880144 
L 229.462664 177.021566 
L 233.378225 168.496089 
L 238.971885 155.733093 
L 247.735285 135.745986 
L 251.837302 126.984361 
L 255.193497 120.334172 
L 258.176782 114.921508 
L 260.787157 110.635964 
L 263.211076 107.078135 
L 265.44854 104.186126 
L 267.499548 101.888143 
L 269.364101 100.107259 
L 271.228654 98.631867 
L 272.906752 97.573556 
L 274.58485 96.777138 
L 276.076493 96.293337 
L 277.568135 96.023618 
L 279.059778 95.970323 
L 280.55142 96.13513 
L 282.043063 96.51906 
L 283.534705 97.122477 
L 285.212803 98.063286 
L 286.890901 99.280105 
L 288.568999 100.770526 
L 290.433552 102.743269 
L 292.298105 105.043507 
L 294.349113 107.94306 
L 296.400122 111.217974 
L 298.637586 115.202581 
L 301.061505 119.981586 
L 303.671879 125.634056 
L 306.468709 132.229158 
L 309.638449 140.313742 
L 312.994645 149.495658 
L 316.910207 160.888534 
L 321.385134 174.6166 
L 327.165249 193.120757 
L 336.488015 223.848228 
L 340.217121 236.224445 
L 340.217121 236.224445 
" style="fill:none;stroke:#d62728;stroke-linecap:square;stroke-width:1.5;"/>
   </g>
   <g id="line2d_18">
    <path clip-path="url(#pac7eaeb7f6)" d="M 60.534149 151.796629 
L 61.652881 151.664179 
L 62.771612 151.277008 
L 63.890344 150.650381 
L 65.195531 149.637027 
L 66.500719 148.342728 
L 67.992361 146.550512 
L 69.670459 144.178154 
L 71.535012 141.159695 
L 73.772476 137.100507 
L 76.569306 131.526424 
L 80.671323 122.786975 
L 86.637893 110.122798 
L 89.621178 104.327313 
L 92.045097 100.078242 
L 94.096105 96.883628 
L 95.960658 94.345505 
L 97.638756 92.389306 
L 99.316854 90.767171 
L 100.808497 89.621342 
L 102.300139 88.766126 
L 103.605326 88.263654 
L 104.910514 87.995946 
L 106.215701 87.966825 
L 107.520888 88.17891 
L 108.826075 88.633607 
L 110.131262 89.33112 
L 111.43645 90.270458 
L 112.928092 91.637254 
L 114.419735 93.311917 
L 116.097832 95.555057 
L 117.77593 98.165978 
L 119.640483 101.47904 
L 121.691492 105.594475 
L 123.928956 110.601319 
L 126.352875 116.567905 
L 129.149704 124.046437 
L 132.5059 133.668828 
L 137.540194 148.871349 
L 144.43904 169.635725 
L 147.795236 179.051574 
L 150.592066 186.288326 
L 153.015985 191.993769 
L 155.253449 196.716601 
L 157.304457 200.534989 
L 159.16901 203.547049 
L 160.847108 205.86138 
L 162.525206 207.783067 
L 164.016848 209.150617 
L 165.322036 210.07794 
L 166.627223 210.749792 
L 167.93241 211.163364 
L 169.237597 211.316963 
L 170.356329 211.241239 
L 171.661516 210.911373 
L 172.966703 210.322896 
L 174.271891 209.478446 
L 175.577078 208.381773 
L 177.06872 206.825847 
L 178.560363 204.955781 
L 180.238461 202.489866 
L 182.103014 199.321408 
L 184.154022 195.347938 
L 186.391486 190.479095 
L 188.815405 184.646252 
L 191.612235 177.306867 
L 194.968431 167.837212 
L 199.816269 153.412552 
L 206.901571 132.38247 
L 210.257766 123.118692 
L 213.054596 116.013659 
L 215.478515 110.425929 
L 217.715979 105.814303 
L 219.766988 102.099533 
L 221.631541 99.182593 
L 223.309638 96.954202 
L 224.801281 95.30252 
L 226.292924 93.970324 
L 227.598111 93.07265 
L 228.903298 92.42916 
L 230.208485 92.042577 
L 231.513672 91.914495 
L 232.81886 92.045381 
L 234.124047 92.434567 
L 235.429234 93.080252 
L 236.734421 93.979513 
L 238.226064 95.312516 
L 239.717706 96.963644 
L 241.395804 99.189407 
L 243.073902 101.78927 
L 244.938455 105.093504 
L 246.989463 109.198602 
L 249.226927 114.187527 
L 251.837302 120.596561 
L 254.820587 128.557502 
L 258.549693 139.191427 
L 271.042199 175.425864 
L 274.025484 183.085885 
L 276.449403 188.744851 
L 278.686867 193.433938 
L 280.737875 197.224056 
L 282.602429 200.20843 
L 284.280526 202.492888 
L 285.772169 204.18785 
L 287.263811 205.554488 
L 288.568999 206.472935 
L 289.874186 207.126481 
L 291.179373 207.510442 
L 292.298105 207.622197 
L 293.416837 207.531525 
L 294.535569 207.237323 
L 295.654301 206.739056 
L 296.959488 205.899904 
L 298.264675 204.784081 
L 299.569862 203.393628 
L 301.061505 201.472204 
L 302.553147 199.202189 
L 304.231245 196.241398 
L 306.095798 192.461903 
L 307.960351 188.187798 
L 310.01136 182.944607 
L 312.248824 176.61984 
L 314.672743 169.115404 
L 317.469573 159.705586 
L 320.639313 148.210786 
L 324.368419 133.786715 
L 329.029802 114.791246 
L 336.301559 84.071237 
L 340.217121 67.365857 
L 340.217121 67.365857 
" style="fill:none;stroke:#9467bd;stroke-linecap:square;stroke-width:1.5;"/>
   </g>
   <g id="line2d_19">
    <path clip-path="url(#pac7eaeb7f6)" d="M 60.534149 151.796629 
L 61.466425 151.659277 
L 62.398702 151.257976 
L 63.330978 150.608855 
L 64.44971 149.525488 
L 65.568442 148.136309 
L 66.873629 146.166145 
L 68.365272 143.507524 
L 70.229825 139.669213 
L 72.467289 134.473956 
L 75.450574 126.896384 
L 82.908786 107.643358 
L 85.332705 102.12587 
L 87.383714 97.999135 
L 89.061812 95.068242 
L 90.73991 92.590776 
L 92.231552 90.803297 
L 93.536739 89.580112 
L 94.655471 88.796128 
L 95.774203 88.263976 
L 96.892935 87.989468 
L 98.011667 87.97697 
L 99.130399 88.229391 
L 100.249131 88.748183 
L 101.367863 89.533352 
L 102.486594 90.583465 
L 103.791782 92.139571 
L 105.096969 94.045426 
L 106.588611 96.63958 
L 108.266709 100.066636 
L 109.944807 104.001641 
L 111.80936 108.923723 
L 114.046824 115.512292 
L 116.470743 123.3603 
L 119.454028 133.792311 
L 124.115411 151.028324 
L 129.522615 170.83562 
L 132.5059 180.935858 
L 134.929819 188.40521 
L 136.980828 194.076575 
L 138.845381 198.635773 
L 140.523479 202.202183 
L 142.015121 204.913525 
L 143.506764 207.169437 
L 144.811951 208.754942 
L 145.930683 209.817274 
L 147.049415 210.600497 
L 148.168147 211.101011 
L 149.100423 211.300475 
L 150.0327 211.301427 
L 150.964976 211.103929 
L 151.897253 210.7087 
L 153.015985 209.975392 
L 154.134717 208.962955 
L 155.439904 207.435629 
L 156.745091 205.545187 
L 158.236734 202.95607 
L 159.728376 199.931096 
L 161.406474 196.039305 
L 163.271027 191.157807 
L 165.508491 184.614998 
L 167.93241 176.821924 
L 171.10215 165.81085 
L 176.69581 145.339085 
L 180.984282 130.02925 
L 183.781112 120.798038 
L 186.205031 113.534297 
L 188.256039 108.050466 
L 190.120592 103.6714 
L 191.79869 100.27391 
L 193.290333 97.717238 
L 194.781975 95.619383 
L 196.087163 94.174246 
L 197.205894 93.233257 
L 198.324626 92.571879 
L 199.443358 92.19328 
L 200.375635 92.095146 
L 201.307911 92.195003 
L 202.240188 92.492527 
L 203.35892 93.109048 
L 204.477652 94.005828 
L 205.596384 95.178596 
L 206.901571 96.888111 
L 208.206758 98.954523 
L 209.698401 101.735844 
L 211.376498 105.371501 
L 213.241051 109.994214 
L 215.29206 115.716971 
L 217.529524 122.61692 
L 220.326353 132.009226 
L 224.05546 145.400165 
L 231.886583 173.767352 
L 234.683413 182.998569 
L 237.107332 190.259465 
L 239.15834 195.73934 
L 241.022893 200.113986 
L 242.700991 203.507156 
L 244.192634 206.059966 
L 245.684276 208.154178 
L 246.989463 209.596494 
L 248.108195 210.535472 
L 249.226927 211.195332 
L 250.345659 211.57302 
L 251.277936 211.670946 
L 252.210212 211.571455 
L 253.142489 211.274946 
L 254.261221 210.660603 
L 255.379953 209.767176 
L 256.498685 208.599073 
L 257.803872 206.896843 
L 259.109059 204.839926 
L 260.600701 202.072465 
L 262.278799 198.456684 
L 264.143352 193.862021 
L 266.194361 188.178296 
L 268.61828 180.734967 
L 271.41511 171.381437 
L 275.330671 157.434159 
L 282.229518 132.806144 
L 285.026348 123.66659 
L 287.450267 116.481018 
L 289.501275 111.068734 
L 291.365828 106.76415 
L 293.043926 103.445561 
L 294.535569 100.97177 
L 295.840756 99.195237 
L 297.145943 97.795918 
L 298.264675 96.90594 
L 299.383407 96.308266 
L 300.315684 96.037148 
L 301.24796 95.974755 
L 302.180237 96.122707 
L 303.112513 96.482007 
L 304.04479 97.053048 
L 305.163522 98.017448 
L 306.282254 99.284895 
L 307.587441 101.142876 
L 308.892628 103.403148 
L 310.384271 106.467857 
L 311.875913 110.030761 
L 313.554011 114.610406 
L 315.418564 120.370666 
L 317.469573 127.46557 
L 319.707036 136.026885 
L 322.317411 146.961889 
L 325.300696 160.49203 
L 328.843347 177.637636 
L 333.87764 203.236142 
L 340.217121 236.227273 
L 340.217121 236.227273 
" style="fill:none;stroke:#8c564b;stroke-linecap:square;stroke-width:1.5;"/>
   </g>
   <g id="line2d_20">
    <path clip-path="url(#pac7eaeb7f6)" d="M 60.534149 151.796629 
L 61.27997 151.673721 
L 62.025791 151.314087 
L 62.771612 150.731358 
L 63.703889 149.709978 
L 64.822621 148.089732 
L 66.127808 145.713336 
L 67.619451 142.445195 
L 69.297548 138.192715 
L 71.535012 131.825902 
L 75.077663 120.902402 
L 78.993225 108.996854 
L 81.230689 102.859357 
L 83.095242 98.350726 
L 84.77334 94.877633 
L 86.264982 92.323365 
L 87.570169 90.53952 
L 88.688901 89.367284 
L 89.807633 88.539227 
L 90.73991 88.120241 
L 91.672186 87.953058 
L 92.604463 88.041289 
L 93.536739 88.387174 
L 94.469016 88.991588 
L 95.401292 89.854044 
L 96.520024 91.226931 
L 97.638756 92.962998 
L 98.943943 95.436099 
L 100.249131 98.374209 
L 101.740773 102.272458 
L 103.418871 107.298053 
L 105.283424 113.596304 
L 107.520888 121.99812 
L 110.131262 132.694896 
L 114.233279 150.584507 
L 119.081117 171.549882 
L 121.691492 181.916584 
L 123.928956 189.919033 
L 125.793509 195.803584 
L 127.471607 200.394777 
L 128.963249 203.857987 
L 130.268436 206.377892 
L 131.573624 208.397798 
L 132.692355 209.717492 
L 133.624632 210.520274 
L 134.556909 211.049198 
L 135.489185 211.301938 
L 136.421462 211.27744 
L 137.353738 210.975924 
L 138.286015 210.39889 
L 139.218291 209.549102 
L 140.337023 208.175077 
L 141.455755 206.423451 
L 142.760942 203.918534 
L 144.06613 200.938755 
L 145.557772 196.986924 
L 147.23587 191.901237 
L 149.100423 185.546251 
L 151.337887 177.103916 
L 154.134717 165.627365 
L 164.76267 121.009197 
L 167.000133 113.100881 
L 168.864687 107.288839 
L 170.542784 102.75891 
L 172.034427 99.347306 
L 173.339614 96.870521 
L 174.644801 94.891944 
L 175.763533 93.606301 
L 176.69581 92.830953 
L 177.628086 92.328617 
L 178.560363 92.101625 
L 179.49264 92.151034 
L 180.424916 92.476618 
L 181.357193 93.076875 
L 182.289469 93.949027 
L 183.408201 95.348743 
L 184.526933 97.124783 
L 185.83212 99.656534 
L 187.137307 102.661328 
L 188.62895 106.639455 
L 190.307048 111.751719 
L 192.171601 118.132392 
L 194.409065 126.600065 
L 197.205894 138.099692 
L 207.647392 182.022014 
L 209.884856 189.992229 
L 211.749409 195.865213 
L 213.427507 200.456341 
L 214.919149 203.926665 
L 216.224337 206.457616 
L 217.529524 208.49246 
L 218.648256 209.827624 
L 219.580532 210.644903 
L 220.512809 211.189567 
L 221.445085 211.459091 
L 222.377362 211.452221 
L 223.309638 211.168986 
L 224.241915 210.610691 
L 225.174192 209.779917 
L 226.292924 208.428815 
L 227.411655 206.69994 
L 228.716843 204.220958 
L 230.02203 201.266038 
L 231.513672 197.34076 
L 233.19177 192.281886 
L 235.056323 185.952013 
L 237.293787 177.532082 
L 240.090617 166.069831 
L 245.497821 142.662399 
L 249.040472 127.860006 
L 251.464391 118.589473 
L 253.5154 111.541544 
L 255.379953 105.909528 
L 257.05805 101.561329 
L 258.549693 98.324333 
L 259.85488 96.008487 
L 260.973612 94.424007 
L 262.092344 93.220365 
L 263.024621 92.514011 
L 263.956897 92.080825 
L 264.889174 91.922716 
L 265.82145 92.04031 
L 266.753727 92.432951 
L 267.686003 93.098699 
L 268.61828 94.034342 
L 269.737012 95.506991 
L 270.855744 97.351707 
L 272.160931 99.957209 
L 273.652574 103.502802 
L 275.330671 108.163934 
L 277.195224 114.093766 
L 279.246233 121.399546 
L 281.670152 130.868365 
L 285.212803 145.728578 
L 291.365828 171.648633 
L 293.976203 181.601009 
L 296.027211 188.607707 
L 297.891764 194.201277 
L 299.569862 198.506655 
L 301.061505 201.693035 
L 302.366692 203.950338 
L 303.485424 205.470837 
L 304.604156 206.594879 
L 305.536432 207.220883 
L 306.468709 207.559098 
L 307.21453 207.619896 
L 307.960351 207.49271 
L 308.706173 207.176656 
L 309.638449 206.515444 
L 310.570726 205.558851 
L 311.503002 204.308352 
L 312.621734 202.42358 
L 313.926922 199.703663 
L 315.232109 196.436564 
L 316.723751 192.056492 
L 318.401849 186.345211 
L 320.266402 179.092238 
L 322.317411 170.113141 
L 324.554874 159.27049 
L 327.165249 145.47466 
L 330.334989 127.468334 
L 334.809917 100.619933 
L 340.217121 67.365978 
L 340.217121 67.365978 
" style="fill:none;stroke:#e377c2;stroke-linecap:square;stroke-width:1.5;"/>
   </g>
   <g id="line2d_21">
    <path clip-path="url(#pac7eaeb7f6)" d="M 60.534149 151.796629 
L 61.093515 151.704355 
L 61.839336 151.304941 
L 62.585157 150.608855 
L 63.517434 149.353442 
L 64.44971 147.708022 
L 65.568442 145.276062 
L 66.873629 141.896579 
L 68.551727 136.863234 
L 70.789191 129.318789 
L 78.060948 104.098446 
L 79.925501 98.772609 
L 81.417144 95.150616 
L 82.722331 92.523231 
L 83.841063 90.714014 
L 84.959795 89.341699 
L 85.892071 88.547615 
L 86.637893 88.148435 
L 87.383714 87.963479 
L 88.129535 87.995729 
L 88.875356 88.247172 
L 89.621178 88.7188 
L 90.553454 89.617883 
L 91.485731 90.858789 
L 92.604463 92.792563 
L 93.723195 95.19975 
L 95.028382 98.583755 
L 96.520024 103.16745 
L 98.198122 109.160281 
L 100.062675 116.728532 
L 102.300139 126.834989 
L 105.283424 141.484022 
L 112.182271 175.820384 
L 114.419735 185.674535 
L 116.284288 192.958419 
L 117.962386 198.635607 
L 119.454028 202.889251 
L 120.759215 205.944515 
L 121.877947 208.038854 
L 122.810224 209.400171 
L 123.7425 210.403599 
L 124.488322 210.944571 
L 125.234143 211.250588 
L 125.979964 211.320537 
L 126.725785 211.154228 
L 127.471607 210.7524 
L 128.217428 210.116715 
L 129.149704 208.997266 
L 130.081981 207.523549 
L 131.200713 205.300567 
L 132.5059 202.106035 
L 133.811087 198.301486 
L 135.30273 193.266051 
L 136.980828 186.820907 
L 139.031836 178.004968 
L 141.642211 165.688172 
L 150.964976 120.581951 
L 153.015985 112.297883 
L 154.694083 106.38412 
L 156.185725 101.884335 
L 157.490912 98.590255 
L 158.609644 96.276708 
L 159.728376 94.455767 
L 160.660653 93.326419 
L 161.592929 92.557448 
L 162.338751 92.205008 
L 163.084572 92.087686 
L 163.830393 92.205949 
L 164.576214 92.559334 
L 165.322036 93.14645 
L 166.254312 94.205416 
L 167.186589 95.619381 
L 168.305321 97.772319 
L 169.424052 100.404695 
L 170.72924 104.05037 
L 172.220882 108.919992 
L 173.89898 115.202198 
L 175.949989 123.858037 
L 178.373908 135.138435 
L 182.475925 155.543929 
L 186.391486 174.642448 
L 188.815405 185.353108 
L 190.679958 192.664519 
L 192.358056 198.389012 
L 193.849699 202.700139 
L 195.154886 205.815854 
L 196.273618 207.96838 
L 197.39235 209.622317 
L 198.324626 210.609006 
L 199.070448 211.137502 
L 199.816269 211.431807 
L 200.56209 211.490758 
L 201.307911 211.314124 
L 202.053733 210.902602 
L 202.799554 210.257817 
L 203.73183 209.127772 
L 204.664107 207.644265 
L 205.782839 205.410513 
L 207.088026 202.204644 
L 208.393213 198.389953 
L 209.884856 193.34423 
L 211.562954 186.888984 
L 213.613962 178.062529 
L 216.224337 165.734806 
L 225.547102 120.605341 
L 227.598111 112.318495 
L 229.276209 106.40292 
L 230.767851 101.901842 
L 232.073038 98.606858 
L 233.19177 96.292697 
L 234.310502 94.471283 
L 235.242779 93.341648 
L 236.175055 92.572482 
L 236.920876 92.219953 
L 237.666698 92.102602 
L 238.412519 92.220894 
L 239.15834 92.574368 
L 239.904162 93.161632 
L 240.836438 94.220867 
L 241.768715 95.635196 
L 242.887447 97.788701 
L 244.006178 100.42179 
L 245.311366 104.068487 
L 246.803008 108.939549 
L 248.481106 115.223744 
L 250.532114 123.882607 
L 252.956034 135.167533 
L 256.871595 154.646629 
L 260.973612 174.696627 
L 263.397531 185.41913 
L 265.262084 192.741502 
L 266.940182 198.477479 
L 268.431825 202.800292 
L 269.737012 205.927524 
L 270.855744 208.090992 
L 271.974476 209.756962 
L 272.906752 210.754586 
L 273.652574 211.292475 
L 274.398395 211.596784 
L 275.144216 211.666391 
L 275.890037 211.501107 
L 276.635859 211.101673 
L 277.38168 210.469762 
L 278.313956 209.356993 
L 279.246233 207.892176 
L 280.364965 205.682883 
L 281.670152 202.508627 
L 282.975339 198.729227 
L 284.466982 193.728892 
L 286.14508 187.332016 
L 288.196088 178.58908 
L 290.806462 166.390823 
L 299.569862 124.410209 
L 301.620871 116.103046 
L 303.298969 110.158629 
L 304.790611 105.631693 
L 306.095798 102.320717 
L 307.21453 100.002664 
L 308.333262 98.19085 
L 309.265539 97.082761 
L 310.197815 96.350394 
L 310.943636 96.040233 
L 311.689458 95.978419 
L 312.435279 96.167032 
L 313.1811 96.607282 
L 313.926922 97.299512 
L 314.859198 98.51828 
L 315.791475 100.127031 
L 316.910207 102.565281 
L 318.028938 105.545783 
L 319.334126 109.686762 
L 320.825768 115.255156 
L 322.503866 122.516347 
L 324.368419 131.710027 
L 326.419428 143.02138 
L 328.843347 157.725499 
L 331.826632 177.300971 
L 336.115104 207.096832 
L 340.217121 236.22726 
L 340.217121 236.22726 
" style="fill:none;stroke:#7f7f7f;stroke-linecap:square;stroke-width:1.5;"/>
   </g>
   <g id="patch_3">
    <path d="M 46.55 246.2 
L 46.55 26.8 
" style="fill:none;stroke:#000000;stroke-linecap:square;stroke-linejoin:miter;stroke-width:0.8;"/>
   </g>
   <g id="patch_4">
    <path d="M 354.20127 246.2 
L 354.20127 26.8 
" style="fill:none;stroke:#000000;stroke-linecap:square;stroke-linejoin:miter;stroke-width:0.8;"/>
   </g>
   <g id="patch_5">
    <path d="M 46.55 246.2 
L 354.20127 246.2 
" style="fill:none;stroke:#000000;stroke-linecap:square;stroke-linejoin:miter;stroke-width:0.8;"/>
   </g>
   <g id="patch_6">
    <path d="M 46.55 26.8 
L 354.20127 26.8 
" style="fill:none;stroke:#000000;stroke-linecap:square;stroke-linejoin:miter;stroke-width:0.8;"/>
   </g>
   <g id="text_16">
    <!-- Funções base -->
    <g transform="translate(159.651572 20.8)scale(0.12 -0.12)">
     <defs>
      <path d="M 628 4666 
L 3309 4666 
L 3309 4134 
L 1259 4134 
L 1259 2759 
L 3109 2759 
L 3109 2228 
L 1259 2228 
L 1259 0 
L 628 0 
L 628 4666 
z
" id="DejaVuSans-46" transform="scale(0.015625)"/>
      <path d="M 3513 2113 
L 3513 0 
L 2938 0 
L 2938 2094 
Q 2938 2591 2744 2837 
Q 2550 3084 2163 3084 
Q 1697 3084 1428 2787 
Q 1159 2491 1159 1978 
L 1159 0 
L 581 0 
L 581 3500 
L 1159 3500 
L 1159 2956 
Q 1366 3272 1645 3428 
Q 1925 3584 2291 3584 
Q 2894 3584 3203 3211 
Q 3513 2838 3513 2113 
z
" id="DejaVuSans-6e" transform="scale(0.015625)"/>
      <path d="M 1959 3097 
Q 1497 3097 1228 2736 
Q 959 2375 959 1747 
Q 959 1119 1226 758 
Q 1494 397 1959 397 
Q 2419 397 2687 759 
Q 2956 1122 2956 1747 
Q 2956 2369 2687 2733 
Q 2419 3097 1959 3097 
z
M 1959 3584 
Q 2709 3584 3137 3096 
Q 3566 2609 3566 1747 
Q 3566 888 3137 398 
Q 2709 -91 1959 -91 
Q 1206 -91 779 398 
Q 353 888 353 1747 
Q 353 2609 779 3096 
Q 1206 3584 1959 3584 
z
M 1948 4281 
L 1769 4453 
Q 1701 4516 1649 4545 
Q 1598 4575 1557 4575 
Q 1438 4575 1382 4461 
Q 1326 4347 1319 4091 
L 929 4091 
Q 935 4513 1094 4742 
Q 1254 4972 1538 4972 
Q 1657 4972 1757 4928 
Q 1857 4884 1973 4781 
L 2151 4609 
Q 2219 4547 2271 4517 
Q 2323 4488 2363 4488 
Q 2482 4488 2538 4602 
Q 2594 4716 2601 4972 
L 2991 4972 
Q 2985 4550 2825 4320 
Q 2666 4091 2382 4091 
Q 2263 4091 2163 4134 
Q 2063 4178 1948 4281 
z
" id="DejaVuSans-f5" transform="scale(0.015625)"/>
      <path d="M 3116 1747 
Q 3116 2381 2855 2742 
Q 2594 3103 2138 3103 
Q 1681 3103 1420 2742 
Q 1159 2381 1159 1747 
Q 1159 1113 1420 752 
Q 1681 391 2138 391 
Q 2594 391 2855 752 
Q 3116 1113 3116 1747 
z
M 1159 2969 
Q 1341 3281 1617 3432 
Q 1894 3584 2278 3584 
Q 2916 3584 3314 3078 
Q 3713 2572 3713 1747 
Q 3713 922 3314 415 
Q 2916 -91 2278 -91 
Q 1894 -91 1617 61 
Q 1341 213 1159 525 
L 1159 0 
L 581 0 
L 581 4863 
L 1159 4863 
L 1159 2969 
z
" id="DejaVuSans-62" transform="scale(0.015625)"/>
      <path d="M 2194 1759 
Q 1497 1759 1228 1600 
Q 959 1441 959 1056 
Q 959 750 1161 570 
Q 1363 391 1709 391 
Q 2188 391 2477 730 
Q 2766 1069 2766 1631 
L 2766 1759 
L 2194 1759 
z
M 3341 1997 
L 3341 0 
L 2766 0 
L 2766 531 
Q 2569 213 2275 61 
Q 1981 -91 1556 -91 
Q 1019 -91 701 211 
Q 384 513 384 1019 
Q 384 1609 779 1909 
Q 1175 2209 1959 2209 
L 2766 2209 
L 2766 2266 
Q 2766 2663 2505 2880 
Q 2244 3097 1772 3097 
Q 1472 3097 1187 3025 
Q 903 2953 641 2809 
L 641 3341 
Q 956 3463 1253 3523 
Q 1550 3584 1831 3584 
Q 2591 3584 2966 3190 
Q 3341 2797 3341 1997 
z
" id="DejaVuSans-61" transform="scale(0.015625)"/>
     </defs>
     <use xlink:href="#DejaVuSans-46"/>
     <use x="52.019531" xlink:href="#DejaVuSans-75"/>
     <use x="115.398438" xlink:href="#DejaVuSans-6e"/>
     <use x="178.777344" xlink:href="#DejaVuSans-e7"/>
     <use x="233.757812" xlink:href="#DejaVuSans-f5"/>
     <use x="294.939453" xlink:href="#DejaVuSans-65"/>
     <use x="356.462891" xlink:href="#DejaVuSans-73"/>
     <use x="408.5625" xlink:href="#DejaVuSans-20"/>
     <use x="440.349609" xlink:href="#DejaVuSans-62"/>
     <use x="503.826172" xlink:href="#DejaVuSans-61"/>
     <use x="565.105469" xlink:href="#DejaVuSans-73"/>
     <use x="617.205078" xlink:href="#DejaVuSans-65"/>
    </g>
   </g>
   <g id="legend_1">
    <g id="patch_7">
     <path d="M 361.20127 152.225 
L 418.00127 152.225 
Q 420.00127 152.225 420.00127 150.225 
L 420.00127 33.8 
Q 420.00127 31.8 418.00127 31.8 
L 361.20127 31.8 
Q 359.20127 31.8 359.20127 33.8 
L 359.20127 150.225 
Q 359.20127 152.225 361.20127 152.225 
z
" style="fill:#ffffff;opacity:0.8;stroke:#cccccc;stroke-linejoin:miter;"/>
    </g>
    <g id="line2d_22">
     <path d="M 363.20127 39.898437 
L 383.20127 39.898437 
" style="fill:none;stroke:#1f77b4;stroke-linecap:square;stroke-width:1.5;"/>
    </g>
    <g id="line2d_23"/>
    <g id="text_17">
     <!-- $d_0(x)$ -->
     <g transform="translate(391.20127 43.398437)scale(0.1 -0.1)">
      <defs>
       <path d="M 2675 525 
Q 2444 222 2128 65 
Q 1813 -91 1428 -91 
Q 903 -91 598 267 
Q 294 625 294 1247 
Q 294 1766 478 2236 
Q 663 2706 1013 3078 
Q 1244 3325 1534 3454 
Q 1825 3584 2144 3584 
Q 2481 3584 2739 3421 
Q 2997 3259 3138 2956 
L 3513 4863 
L 4091 4863 
L 3144 0 
L 2566 0 
L 2675 525 
z
M 891 1350 
Q 891 897 1095 644 
Q 1300 391 1663 391 
Q 1931 391 2161 520 
Q 2391 650 2566 903 
Q 2750 1166 2856 1509 
Q 2963 1853 2963 2188 
Q 2963 2622 2758 2865 
Q 2553 3109 2194 3109 
Q 1922 3109 1687 2981 
Q 1453 2853 1288 2613 
Q 1106 2353 998 2009 
Q 891 1666 891 1350 
z
" id="DejaVuSans-Oblique-64" transform="scale(0.015625)"/>
       <path d="M 1984 4856 
Q 1566 4138 1362 3434 
Q 1159 2731 1159 2009 
Q 1159 1288 1364 580 
Q 1569 -128 1984 -844 
L 1484 -844 
Q 1016 -109 783 600 
Q 550 1309 550 2009 
Q 550 2706 781 3412 
Q 1013 4119 1484 4856 
L 1984 4856 
z
" id="DejaVuSans-28" transform="scale(0.015625)"/>
       <path d="M 3841 3500 
L 2234 1784 
L 3219 0 
L 2559 0 
L 1819 1388 
L 531 0 
L -166 0 
L 1556 1844 
L 641 3500 
L 1300 3500 
L 1972 2234 
L 3144 3500 
L 3841 3500 
z
" id="DejaVuSans-Oblique-78" transform="scale(0.015625)"/>
       <path d="M 513 4856 
L 1013 4856 
Q 1481 4119 1714 3412 
Q 1947 2706 1947 2009 
Q 1947 1309 1714 600 
Q 1481 -109 1013 -844 
L 513 -844 
Q 928 -128 1133 580 
Q 1338 1288 1338 2009 
Q 1338 2731 1133 3434 
Q 928 4138 513 4856 
z
" id="DejaVuSans-29" transform="scale(0.015625)"/>
      </defs>
      <use transform="translate(0 0.015625)" xlink:href="#DejaVuSans-Oblique-64"/>
      <use transform="translate(63.476562 -16.390625)scale(0.7)" xlink:href="#DejaVuSans-30"/>
      <use transform="translate(110.74707 0.015625)" xlink:href="#DejaVuSans-28"/>
      <use transform="translate(149.760742 0.015625)" xlink:href="#DejaVuSans-Oblique-78"/>
      <use transform="translate(208.94043 0.015625)" xlink:href="#DejaVuSans-29"/>
     </g>
    </g>
    <g id="line2d_24">
     <path d="M 363.20127 54.576562 
L 383.20127 54.576562 
" style="fill:none;stroke:#ff7f0e;stroke-linecap:square;stroke-width:1.5;"/>
    </g>
    <g id="line2d_25"/>
    <g id="text_18">
     <!-- $d_1(x)$ -->
     <g transform="translate(391.20127 58.076562)scale(0.1 -0.1)">
      <use transform="translate(0 0.015625)" xlink:href="#DejaVuSans-Oblique-64"/>
      <use transform="translate(63.476562 -16.390625)scale(0.7)" xlink:href="#DejaVuSans-31"/>
      <use transform="translate(110.74707 0.015625)" xlink:href="#DejaVuSans-28"/>
      <use transform="translate(149.760742 0.015625)" xlink:href="#DejaVuSans-Oblique-78"/>
      <use transform="translate(208.94043 0.015625)" xlink:href="#DejaVuSans-29"/>
     </g>
    </g>
    <g id="line2d_26">
     <path d="M 363.20127 69.254687 
L 383.20127 69.254687 
" style="fill:none;stroke:#2ca02c;stroke-linecap:square;stroke-width:1.5;"/>
    </g>
    <g id="line2d_27"/>
    <g id="text_19">
     <!-- $d_2(x)$ -->
     <g transform="translate(391.20127 72.754687)scale(0.1 -0.1)">
      <use transform="translate(0 0.015625)" xlink:href="#DejaVuSans-Oblique-64"/>
      <use transform="translate(63.476562 -16.390625)scale(0.7)" xlink:href="#DejaVuSans-32"/>
      <use transform="translate(110.74707 0.015625)" xlink:href="#DejaVuSans-28"/>
      <use transform="translate(149.760742 0.015625)" xlink:href="#DejaVuSans-Oblique-78"/>
      <use transform="translate(208.94043 0.015625)" xlink:href="#DejaVuSans-29"/>
     </g>
    </g>
    <g id="line2d_28">
     <path d="M 363.20127 83.932812 
L 383.20127 83.932812 
" style="fill:none;stroke:#d62728;stroke-linecap:square;stroke-width:1.5;"/>
    </g>
    <g id="line2d_29"/>
    <g id="text_20">
     <!-- $d_3(x)$ -->
     <g transform="translate(391.20127 87.432812)scale(0.1 -0.1)">
      <defs>
       <path d="M 2597 2516 
Q 3050 2419 3304 2112 
Q 3559 1806 3559 1356 
Q 3559 666 3084 287 
Q 2609 -91 1734 -91 
Q 1441 -91 1130 -33 
Q 819 25 488 141 
L 488 750 
Q 750 597 1062 519 
Q 1375 441 1716 441 
Q 2309 441 2620 675 
Q 2931 909 2931 1356 
Q 2931 1769 2642 2001 
Q 2353 2234 1838 2234 
L 1294 2234 
L 1294 2753 
L 1863 2753 
Q 2328 2753 2575 2939 
Q 2822 3125 2822 3475 
Q 2822 3834 2567 4026 
Q 2313 4219 1838 4219 
Q 1578 4219 1281 4162 
Q 984 4106 628 3988 
L 628 4550 
Q 988 4650 1302 4700 
Q 1616 4750 1894 4750 
Q 2613 4750 3031 4423 
Q 3450 4097 3450 3541 
Q 3450 3153 3228 2886 
Q 3006 2619 2597 2516 
z
" id="DejaVuSans-33" transform="scale(0.015625)"/>
      </defs>
      <use transform="translate(0 0.015625)" xlink:href="#DejaVuSans-Oblique-64"/>
      <use transform="translate(63.476562 -16.390625)scale(0.7)" xlink:href="#DejaVuSans-33"/>
      <use transform="translate(110.74707 0.015625)" xlink:href="#DejaVuSans-28"/>
      <use transform="translate(149.760742 0.015625)" xlink:href="#DejaVuSans-Oblique-78"/>
      <use transform="translate(208.94043 0.015625)" xlink:href="#DejaVuSans-29"/>
     </g>
    </g>
    <g id="line2d_30">
     <path d="M 363.20127 98.610937 
L 383.20127 98.610937 
" style="fill:none;stroke:#9467bd;stroke-linecap:square;stroke-width:1.5;"/>
    </g>
    <g id="line2d_31"/>
    <g id="text_21">
     <!-- $d_4(x)$ -->
     <g transform="translate(391.20127 102.110937)scale(0.1 -0.1)">
      <use transform="translate(0 0.015625)" xlink:href="#DejaVuSans-Oblique-64"/>
      <use transform="translate(63.476562 -16.390625)scale(0.7)" xlink:href="#DejaVuSans-34"/>
      <use transform="translate(110.74707 0.015625)" xlink:href="#DejaVuSans-28"/>
      <use transform="translate(149.760742 0.015625)" xlink:href="#DejaVuSans-Oblique-78"/>
      <use transform="translate(208.94043 0.015625)" xlink:href="#DejaVuSans-29"/>
     </g>
    </g>
    <g id="line2d_32">
     <path d="M 363.20127 113.289062 
L 383.20127 113.289062 
" style="fill:none;stroke:#8c564b;stroke-linecap:square;stroke-width:1.5;"/>
    </g>
    <g id="line2d_33"/>
    <g id="text_22">
     <!-- $d_5(x)$ -->
     <g transform="translate(391.20127 116.789062)scale(0.1 -0.1)">
      <defs>
       <path d="M 691 4666 
L 3169 4666 
L 3169 4134 
L 1269 4134 
L 1269 2991 
Q 1406 3038 1543 3061 
Q 1681 3084 1819 3084 
Q 2600 3084 3056 2656 
Q 3513 2228 3513 1497 
Q 3513 744 3044 326 
Q 2575 -91 1722 -91 
Q 1428 -91 1123 -41 
Q 819 9 494 109 
L 494 744 
Q 775 591 1075 516 
Q 1375 441 1709 441 
Q 2250 441 2565 725 
Q 2881 1009 2881 1497 
Q 2881 1984 2565 2268 
Q 2250 2553 1709 2553 
Q 1456 2553 1204 2497 
Q 953 2441 691 2322 
L 691 4666 
z
" id="DejaVuSans-35" transform="scale(0.015625)"/>
      </defs>
      <use transform="translate(0 0.015625)" xlink:href="#DejaVuSans-Oblique-64"/>
      <use transform="translate(63.476562 -16.390625)scale(0.7)" xlink:href="#DejaVuSans-35"/>
      <use transform="translate(110.74707 0.015625)" xlink:href="#DejaVuSans-28"/>
      <use transform="translate(149.760742 0.015625)" xlink:href="#DejaVuSans-Oblique-78"/>
      <use transform="translate(208.94043 0.015625)" xlink:href="#DejaVuSans-29"/>
     </g>
    </g>
    <g id="line2d_34">
     <path d="M 363.20127 127.967187 
L 383.20127 127.967187 
" style="fill:none;stroke:#e377c2;stroke-linecap:square;stroke-width:1.5;"/>
    </g>
    <g id="line2d_35"/>
    <g id="text_23">
     <!-- $d_6(x)$ -->
     <g transform="translate(391.20127 131.467187)scale(0.1 -0.1)">
      <use transform="translate(0 0.015625)" xlink:href="#DejaVuSans-Oblique-64"/>
      <use transform="translate(63.476562 -16.390625)scale(0.7)" xlink:href="#DejaVuSans-36"/>
      <use transform="translate(110.74707 0.015625)" xlink:href="#DejaVuSans-28"/>
      <use transform="translate(149.760742 0.015625)" xlink:href="#DejaVuSans-Oblique-78"/>
      <use transform="translate(208.94043 0.015625)" xlink:href="#DejaVuSans-29"/>
     </g>
    </g>
    <g id="line2d_36">
     <path d="M 363.20127 142.645312 
L 383.20127 142.645312 
" style="fill:none;stroke:#7f7f7f;stroke-linecap:square;stroke-width:1.5;"/>
    </g>
    <g id="line2d_37"/>
    <g id="text_24">
     <!-- $d_7(x)$ -->
     <g transform="translate(391.20127 146.145312)scale(0.1 -0.1)">
      <defs>
       <path d="M 525 4666 
L 3525 4666 
L 3525 4397 
L 1831 0 
L 1172 0 
L 2766 4134 
L 525 4134 
L 525 4666 
z
" id="DejaVuSans-37" transform="scale(0.015625)"/>
      </defs>
      <use transform="translate(0 0.015625)" xlink:href="#DejaVuSans-Oblique-64"/>
      <use transform="translate(63.476562 -16.390625)scale(0.7)" xlink:href="#DejaVuSans-37"/>
      <use transform="translate(110.74707 0.015625)" xlink:href="#DejaVuSans-28"/>
      <use transform="translate(149.760742 0.015625)" xlink:href="#DejaVuSans-Oblique-78"/>
      <use transform="translate(208.94043 0.015625)" xlink:href="#DejaVuSans-29"/>
     </g>
    </g>
   </g>
  </g>
 </g>
 <defs>
  <clipPath id="pac7eaeb7f6">
   <rect height="219.4" width="307.65127" x="46.55" y="26.8"/>
  </clipPath>
 </defs>
</svg>
